<svg width="32" height="32" viewBox="0 0 32 32" fill="none" xmlns="http://www.w3.org/2000/svg">
<g clip-path="url(#clip0_0_119)">
<path d="M31.8627 16.0248C31.8627 7.67316 24.9049 0.902832 16.322 0.902832C7.73906 0.902832 0.78125 7.67316 0.78125 16.0248C0.78125 23.5725 6.46423 29.8286 13.8937 30.963V20.396H9.94784V16.0248H13.8937V12.6932C13.8937 8.90329 16.2139 6.80985 19.7637 6.80985C21.4635 6.80985 23.2424 7.1052 23.2424 7.1052V10.8266H21.2829C19.3524 10.8266 18.7502 11.9924 18.7502 13.1894V16.0248H23.0603L22.3713 20.396H18.7502V30.963C26.1797 29.8286 31.8627 23.5725 31.8627 16.0248Z" fill="white"/>
<path d="M22.3713 20.3959L23.0603 16.0248H18.7502V13.1894C18.7502 11.9935 19.3524 10.8266 21.2828 10.8266H23.2424V7.10517C23.2424 7.10517 21.464 6.80981 19.7637 6.80981C16.2139 6.80981 13.8937 8.90326 13.8937 12.6932V16.0248H9.94781V20.3959H13.8937V30.963C15.5027 31.2079 17.1411 31.2079 18.7502 30.963V20.3959H22.3713Z" fill="#0B1D27"/>
</g>
<defs>
<clipPath id="clip0_0_119">
<rect width="31.0814" height="30.2439" fill="white" transform="translate(0.78125 0.902832)"/>
</clipPath>
</defs>
</svg>
