<svg width="32" height="32" viewBox="0 0 32 32" fill="none" xmlns="http://www.w3.org/2000/svg">
<g clip-path="url(#clip0_0_117)">
<path d="M15.5407 3.62621C19.693 3.62621 20.1847 3.64393 21.8177 3.71481C23.3354 3.77979 24.1549 4.02789 24.7012 4.23463C25.4236 4.50635 25.9457 4.83715 26.486 5.36287C27.0323 5.8945 27.3662 6.3966 27.6455 7.09953C27.8579 7.63116 28.1129 8.43452 28.1797 9.90536C28.2525 11.5003 28.2707 11.9787 28.2707 16.0132C28.2707 20.0536 28.2525 20.5321 28.1797 22.1211C28.1129 23.5978 27.8579 24.3953 27.6455 24.9269C27.3662 25.6298 27.0263 26.1378 26.486 26.6636C25.9396 27.1952 25.4236 27.5201 24.7012 27.7918C24.1549 27.9985 23.3293 28.2466 21.8177 28.3116C20.1786 28.3825 19.6869 28.4002 15.5407 28.4002C11.3884 28.4002 10.8967 28.3825 9.26372 28.3116C7.74607 28.2466 6.92654 27.9985 6.38019 27.7918C5.65779 27.5201 5.13572 27.1893 4.59544 26.6636C4.04908 26.1319 3.7152 25.6298 3.43595 24.9269C3.22348 24.3953 2.96852 23.5919 2.90174 22.1211C2.8289 20.5262 2.81068 20.0477 2.81068 16.0132C2.81068 11.9728 2.8289 11.4944 2.90174 9.90536C2.96852 8.42861 3.22348 7.63116 3.43595 7.09953C3.7152 6.3966 4.05515 5.8886 4.59544 5.36287C5.14179 4.83124 5.65779 4.50635 6.38019 4.23463C6.92654 4.02789 7.75215 3.77979 9.26372 3.71481C10.8967 3.64393 11.3884 3.62621 15.5407 3.62621ZM15.5407 0.903076C11.3217 0.903076 10.7935 0.920797 9.13624 0.991681C7.48504 1.06257 6.34984 1.32247 5.3664 1.69462C4.34047 2.08448 3.47238 2.59839 2.61035 3.44309C1.74226 4.28189 1.21412 5.12659 0.813459 6.11897C0.431012 7.08181 0.163906 8.18052 0.0910589 9.78722C0.0182118 11.4057 0 11.9197 0 16.025C0 20.1304 0.0182118 20.6443 0.0910589 22.2569C0.163906 23.8636 0.431012 24.9682 0.813459 25.9252C1.21412 26.9235 1.74226 27.7682 2.61035 28.607C3.47238 29.4458 4.34047 29.9656 5.36033 30.3495C6.34984 30.7217 7.47897 30.9816 9.13017 31.0525C10.7874 31.1234 11.3156 31.1411 15.5346 31.1411C19.7537 31.1411 20.2818 31.1234 21.9391 31.0525C23.5903 30.9816 24.7255 30.7217 25.709 30.3495C26.7288 29.9656 27.5969 29.4458 28.4589 28.607C29.321 27.7682 29.8552 26.9235 30.2498 25.9311C30.6322 24.9683 30.8993 23.8695 30.9722 22.2628C31.045 20.6502 31.0632 20.1363 31.0632 16.0309C31.0632 11.9256 31.045 11.4117 30.9722 9.79904C30.8993 8.19233 30.6322 7.08772 30.2498 6.13078C29.8673 5.12659 29.3392 4.28189 28.4711 3.44309C27.609 2.6043 26.741 2.08448 25.7211 1.70052C24.7316 1.32838 23.6025 1.06847 21.9513 0.997588C20.2879 0.920797 19.7598 0.903076 15.5407 0.903076Z" fill="white"/>
<path d="M15.5407 8.25732C11.1334 8.25732 7.55786 11.7366 7.55786 16.025C7.55786 20.3135 11.1334 23.7928 15.5407 23.7928C19.9479 23.7928 23.5235 20.3135 23.5235 16.025C23.5235 11.7366 19.9479 8.25732 15.5407 8.25732ZM15.5407 21.0637C12.6814 21.0637 10.3625 18.8072 10.3625 16.025C10.3625 13.2428 12.6814 10.9864 15.5407 10.9864C18.3999 10.9864 20.7189 13.2428 20.7189 16.025C20.7189 18.8072 18.3999 21.0637 15.5407 21.0637Z" fill="white"/>
<path d="M25.7029 7.95017C25.7029 8.95437 24.8651 9.76363 23.8392 9.76363C22.8072 9.76363 21.9755 8.94846 21.9755 7.95017C21.9755 6.94598 22.8133 6.13672 23.8392 6.13672C24.8651 6.13672 25.7029 6.95189 25.7029 7.95017Z" fill="white"/>
</g>
<defs>
<clipPath id="clip0_0_117">
<rect width="31.0814" height="30.2439" fill="white" transform="translate(0 0.903076)"/>
</clipPath>
</defs>
</svg>
