<svg width="33" height="32" viewBox="0 0 33 32" fill="none" xmlns="http://www.w3.org/2000/svg">
<g clip-path="url(#clip0_0_118)">
<path d="M10.7628 28.3123C22.4917 28.3123 28.9069 18.8568 28.9069 10.6571C28.9069 10.3885 28.9069 10.1212 28.8882 9.85505C30.1362 8.97666 31.2135 7.88905 32.0697 6.64314C30.906 7.14519 29.6713 7.47429 28.4071 7.61941C29.7384 6.84402 30.7347 5.6243 31.2106 4.18734C29.9589 4.91018 28.5894 5.41956 27.1613 5.69348C26.1999 4.69868 24.9283 4.03995 23.5433 3.81922C22.1583 3.5985 20.7372 3.82808 19.4998 4.47245C18.2625 5.11682 17.2778 6.14005 16.6983 7.3838C16.1188 8.62755 15.9767 10.0225 16.294 11.3527C13.7587 11.229 11.2785 10.5878 9.01435 9.47095C6.7502 8.35406 4.75271 6.78637 3.15155 4.86964C2.33609 6.23565 2.08633 7.85273 2.45312 9.39164C2.81992 10.9305 3.77569 12.2756 5.12584 13.1528C4.11097 13.1239 3.1182 12.8575 2.23154 12.3762V12.4548C2.23194 13.8874 2.7416 15.2758 3.67407 16.3845C4.60654 17.4931 5.90441 18.2538 7.34754 18.5375C6.40873 18.7866 5.4237 18.8231 4.46816 18.6439C4.87581 19.8768 5.66918 20.9549 6.73736 21.7275C7.80554 22.5001 9.09513 22.9286 10.4258 22.9531C9.10369 23.9643 7.58961 24.712 5.97021 25.1533C4.35082 25.5946 2.65789 25.7209 0.988281 25.525C3.90454 27.346 7.29771 28.3119 10.7628 28.3075" fill="white"/>
</g>
<defs>
<clipPath id="clip0_0_118">
<rect width="31.0814" height="30.2439" fill="white" transform="translate(0.988281 0.902832)"/>
</clipPath>
</defs>
</svg>
