<svg width="41" height="40" viewBox="0 0 41 40" fill="none" xmlns="http://www.w3.org/2000/svg">
<g clip-path="url(#clip0_0_120)">
<path d="M40.1973 10.3089C39.9696 9.45796 39.5207 8.6813 38.8957 8.0567C38.2707 7.43209 37.4914 6.98144 36.6359 6.74984C33.4864 5.90894 20.8977 5.90894 20.8977 5.90894C20.8977 5.90894 8.30902 5.90894 5.15955 6.74984C4.30402 6.98144 3.52474 7.43209 2.89972 8.0567C2.27469 8.6813 1.82585 9.45796 1.5981 10.3089C0.755798 13.4498 0.755798 19.9998 0.755798 19.9998C0.755798 19.9998 0.755798 26.5498 1.5981 29.6908C1.82585 30.5417 2.27469 31.3184 2.89972 31.943C3.52474 32.5676 4.30402 33.0183 5.15955 33.2499C8.30902 34.0908 20.8977 34.0908 20.8977 34.0908C20.8977 34.0908 33.4864 34.0908 36.6359 33.2499C37.4914 33.0183 38.2707 32.5676 38.8957 31.943C39.5207 31.3184 39.9696 30.5417 40.1973 29.6908C41.0396 26.5498 41.0396 19.9998 41.0396 19.9998C41.0396 19.9998 41.0396 13.4498 40.1973 10.3089Z" fill="white"/>
<path d="M16.7778 25.9477V14.0522L27.3065 20L16.7778 25.9477Z" fill="#0B1D27"/>
</g>
<defs>
<clipPath id="clip0_0_120">
<rect width="40.2838" height="40" fill="white" transform="translate(0.71582)"/>
</clipPath>
</defs>
</svg>
