<svg width="29" height="11" viewBox="0 0 29 11" fill="none" xmlns="http://www.w3.org/2000/svg">
<path d="M8.36639 0.110159C8.13935 0.167767 6.6636 0.778417 5.08568 1.46396L2.20796 2.71406L1.57225 2.76015C0.715173 2.81775 0.476782 2.92721 0.153251 3.40536L0 3.64155V5.58296V7.5186L0.164603 7.7836C0.425698 8.19838 0.69247 8.32512 1.77658 8.53251L2.71312 8.7111L2.75285 8.91272C2.91178 9.76533 3.68939 10.6007 4.58052 10.8829C5.27866 11.1018 6.16411 11.0039 6.75442 10.6352C7.03254 10.4624 7.46959 10.0418 7.61149 9.81142L7.73068 9.61555H14.9278H22.125L22.2442 9.79989C22.3917 10.0476 22.7891 10.4278 23.0842 10.6122C23.8278 11.0846 24.9119 11.1306 25.6838 10.7216C26.0755 10.52 26.3763 10.2665 26.626 9.93239L26.8587 9.61555H27.3753C27.6534 9.61555 27.9826 9.58674 28.1018 9.54642C28.4196 9.45424 28.7432 9.14892 28.8851 8.80903C29.0043 8.52675 29.0099 8.45186 28.9929 7.0923C28.9759 5.78459 28.9645 5.64633 28.8567 5.40437C28.6807 5.02416 28.3629 4.69003 27.9258 4.42503C26.7339 3.71068 25.19 3.32471 23.175 3.24406L22.2782 3.20949L19.3551 1.82689C17.7488 1.06646 16.2617 0.380919 16.0517 0.306027C15.2514 0.0179853 14.9165 -0.00505829 11.7266 0.000702858C9.02481 0.000702858 8.73533 0.0122242 8.36639 0.110159ZM12.0785 2.02852L13.0604 3.19221L12.7028 3.20949C12.2431 3.23253 12.0274 3.19221 11.8344 3.04243C11.6812 2.91569 9.98972 0.94548 9.98972 0.893633C9.98972 0.870589 10.2395 0.859068 10.546 0.859068H11.0965L12.0785 2.02852ZM15.4841 1.02613C15.8133 1.12407 20.1043 3.10004 20.2008 3.19797C20.2122 3.20949 18.8726 3.22101 17.2152 3.22101H14.207L13.2307 2.06884C12.6972 1.43515 12.2601 0.905155 12.2601 0.882112C12.2601 0.864829 12.8902 0.859068 13.6678 0.87635C14.8938 0.899394 15.1208 0.916677 15.4841 1.02613ZM9.97837 2.24167C10.58 2.95601 11.1817 3.62427 11.3122 3.72221C11.789 4.09666 11.5393 4.08514 17.675 4.08514C20.74 4.0909 23.5042 4.11394 23.8278 4.14275C25.0538 4.2522 26.0755 4.49416 26.8474 4.83981L27.2504 5.02416L27.0801 5.09905C26.7849 5.22579 26.7055 5.51959 26.9098 5.77883C27.0233 5.92285 27.046 5.92861 27.5909 5.92861H28.1529V6.41828V6.90795H27.4717C27.0744 6.90795 26.7906 6.88491 26.7906 6.85034C26.7906 6.82154 26.6374 6.63143 26.4501 6.4298C25.7008 5.61176 24.5713 5.32948 23.5837 5.70394C23.1239 5.87676 22.6358 6.23393 22.3634 6.59111L22.125 6.90795H21.6425C21.2111 6.90795 21.1544 6.91947 21.0295 7.05197C20.8535 7.2248 20.8422 7.49556 21.0011 7.65686C21.0919 7.74903 21.1884 7.77208 21.4552 7.77208H21.7958V8.26175V8.75142H14.9335H8.07124L8.04854 8.19838C8.02584 7.67414 8.01448 7.63382 7.86691 7.50708C7.67392 7.33425 7.5377 7.33425 7.34472 7.50132C7.20282 7.62806 7.19147 7.65686 7.20282 8.12925C7.21417 8.79175 7.07227 9.18348 6.67495 9.5925C6.27763 9.99576 5.86329 10.1513 5.27866 10.1225C4.56349 10.0879 4.00157 9.70772 3.70074 9.05098C3.57019 8.77446 3.54749 8.64773 3.55316 8.26175C3.56452 7.37458 4.0413 6.73513 4.88134 6.48165C5.26731 6.36643 5.45462 6.36643 5.87464 6.48165C6.06195 6.5335 6.27763 6.57382 6.3571 6.56806C6.62387 6.55654 6.7828 6.19937 6.6409 5.92861C6.56143 5.77883 6.03357 5.58872 5.57381 5.54839C4.53511 5.45622 3.45667 6.07263 2.97989 7.03469C2.87205 7.2536 2.76988 7.52436 2.74717 7.63382C2.73015 7.74327 2.69041 7.82969 2.66771 7.82969C2.55419 7.82969 1.20331 7.53588 1.07276 7.47827C0.834369 7.38034 0.794637 7.20752 0.794637 6.30306V5.46774H1.12952C1.42467 5.46774 1.48143 5.45046 1.5836 5.31796C1.74253 5.11633 1.73117 4.92046 1.56089 4.74764C1.44737 4.62666 1.36791 4.60361 1.10682 4.60361H0.794637V4.28101C0.794637 4.01025 0.817341 3.93536 0.953565 3.80286C1.09546 3.65308 1.15222 3.64155 1.70279 3.60699C2.032 3.58971 2.38959 3.54362 2.49743 3.50329C2.60527 3.46873 3.97319 2.88688 5.53408 2.21287C8.88858 0.766894 8.50262 0.922438 8.71263 0.933959C8.86588 0.94548 9.03048 1.11255 9.97837 2.24167ZM24.9743 6.48165C25.5306 6.64871 25.9563 7.01741 26.1833 7.53588C26.3649 7.9449 26.3536 8.62468 26.1549 9.05098C25.8541 9.70772 25.2922 10.0879 24.577 10.1225C23.754 10.1628 23.0445 9.70772 22.7664 8.95305C22.5904 8.48642 22.6188 7.87577 22.8288 7.45523C23.2431 6.63143 24.1343 6.22817 24.9743 6.48165ZM28.1529 8.11773C28.1529 8.41153 28.1302 8.49218 28.011 8.6074C27.8974 8.72838 27.818 8.75142 27.5172 8.75142H27.1596V8.26175V7.77208H27.659H28.1529V8.11773Z" fill="#9903F5"/>
<path d="M9.72849 5.12775C9.56956 5.2084 9.46172 5.44459 9.5128 5.60014C9.55821 5.74416 10.6934 7.28806 10.8694 7.4436C10.9318 7.50121 11.0851 7.59915 11.2099 7.65676C11.4256 7.76621 11.6129 7.77197 15.5293 7.77197C19.3493 7.77197 19.6331 7.76621 19.7409 7.66828C19.809 7.61643 19.8771 7.50121 19.8998 7.4148C19.9282 7.28806 19.8998 7.22469 19.7636 7.08067L19.5933 6.90785H16.6759H13.7641L13.2135 6.1647C12.7992 5.60014 12.5949 5.37546 12.3905 5.25449C12.3276 5.21724 12.2792 5.18859 12.228 5.16642C12.0576 5.09257 11.856 5.09052 10.9829 5.08166C10.262 5.07014 9.80228 5.09318 9.72849 5.12775ZM11.9592 6.00339C12.067 6.06676 12.6573 6.79839 12.6573 6.87904C12.6573 6.89632 12.4132 6.90785 12.1067 6.90785H11.5618L11.3575 6.68893C11.244 6.56796 11.068 6.34328 10.9659 6.19926L10.7785 5.9285H11.3064C11.6129 5.93426 11.8854 5.96307 11.9592 6.00339Z" fill="#9903F5"/>
<path d="M9.72849 5.12775C9.56956 5.2084 9.46172 5.44459 9.5128 5.60014C9.55821 5.74416 10.6934 7.28806 10.8694 7.4436C10.9318 7.50121 11.0851 7.59915 11.2099 7.65676C11.4256 7.76621 11.6129 7.77197 15.5293 7.77197C19.3493 7.77197 19.6331 7.76621 19.7409 7.66828C19.809 7.61643 19.8771 7.50121 19.8998 7.4148C19.9282 7.28806 19.8998 7.22469 19.7636 7.08067L19.5933 6.90785H16.6759H13.7641L13.2135 6.1647C12.7992 5.60014 12.5949 5.37546 12.3905 5.25449C12.3276 5.21724 12.2792 5.18859 12.228 5.16642C12.0576 5.09257 11.856 5.09052 10.9829 5.08166C10.262 5.07014 9.80228 5.09318 9.72849 5.12775ZM11.9592 6.00339C12.067 6.06676 12.6573 6.79839 12.6573 6.87904C12.6573 6.89632 12.4132 6.90785 12.1067 6.90785H11.5618L11.3575 6.68893C11.244 6.56796 11.068 6.34328 10.9659 6.19926L10.7785 5.9285H11.3064C11.6129 5.93426 11.8854 5.96307 11.9592 6.00339Z" stroke="black"/>
<path d="M4.99472 7.49544C4.52928 7.73739 4.35333 8.3538 4.6428 8.74554C4.92093 9.13151 5.36365 9.25249 5.76665 9.06238C6.2037 8.85499 6.38533 8.2213 6.11856 7.83533C5.82341 7.3975 5.42041 7.27652 4.99472 7.49544Z" fill="#9903F5"/>
<path d="M4.99472 7.49544C4.52928 7.73739 4.35333 8.3538 4.6428 8.74554C4.92093 9.13151 5.36365 9.25249 5.76665 9.06238C6.2037 8.85499 6.38533 8.2213 6.11856 7.83533C5.82341 7.3975 5.42041 7.27652 4.99472 7.49544Z" stroke="black"/>
<path d="M24.2135 7.42641C23.8389 7.54163 23.5835 7.93913 23.6232 8.34815C23.7083 9.24684 24.8776 9.45999 25.2636 8.64771C25.4849 8.19261 25.3033 7.69141 24.8379 7.47826C24.5824 7.36304 24.4633 7.35152 24.2135 7.42641Z" fill="#9903F5"/>
<path d="M24.2135 7.42641C23.8389 7.54163 23.5835 7.93913 23.6232 8.34815C23.7083 9.24684 24.8776 9.45999 25.2636 8.64771C25.4849 8.19261 25.3033 7.69141 24.8379 7.47826C24.5824 7.36304 24.4633 7.35152 24.2135 7.42641Z" stroke="black"/>
</svg>
