<svg width="118" height="44" viewBox="0 0 118 44" fill="none" xmlns="http://www.w3.org/2000/svg">
<path d="M33.9659 0.440689C33.0441 0.67112 27.0529 3.11372 20.6468 5.85587L8.96386 10.8563L6.383 11.0406C2.90346 11.2711 1.93564 11.7089 0.62217 13.6215L0 14.5663V22.3319V30.0744L0.668257 31.1344C1.72825 32.7935 2.81129 33.3005 7.21256 34.13L11.0147 34.8444L11.176 35.6509C11.8212 39.0613 14.9782 42.4026 18.596 43.5317C21.4303 44.4074 25.0251 44.0156 27.4216 42.5409C28.5507 41.8496 30.325 40.1674 30.9011 39.2457L31.385 38.4622H60.604H89.8229L90.3068 39.1996C90.906 40.1904 92.519 41.7113 93.7172 42.4487C96.7359 44.3382 101.137 44.5226 104.271 42.8865C105.861 42.08 107.082 41.0661 108.096 39.7296L109.041 38.4622H111.138C112.267 38.4622 113.604 38.347 114.088 38.1857C115.378 37.817 116.691 36.5957 117.268 35.2361C117.751 34.107 117.774 33.8074 117.705 28.3692C117.636 23.1384 117.59 22.5853 117.152 21.6175C116.438 20.0967 115.148 18.7601 113.373 17.7001C108.534 14.8428 102.266 13.2989 94.0859 12.9763L90.4451 12.838L78.5778 7.3076C72.0565 4.26588 66.0192 1.52372 65.1666 1.22416C61.9174 0.0719948 60.5579 -0.0201797 47.6075 0.00286484C36.6389 0.00286484 35.4637 0.0489502 33.9659 0.440689ZM49.0362 8.11412L53.0227 12.7689L51.571 12.838C49.7045 12.9302 48.8288 12.7689 48.0454 12.1697C47.4232 11.6628 40.5563 3.78197 40.5563 3.57458C40.5563 3.48241 41.5702 3.43632 42.8145 3.43632H45.0497L49.0362 8.11412ZM62.8622 4.10458C64.1987 4.49632 81.6195 12.4002 82.0112 12.7919C82.0573 12.838 76.6191 12.8841 69.8904 12.8841H57.6775L53.714 8.27542C51.5479 5.74065 49.7736 3.62067 49.7736 3.5285C49.7736 3.45937 52.3314 3.43632 55.4884 3.50545C60.4657 3.59763 61.3874 3.66676 62.8622 4.10458ZM40.5102 8.96672C42.9528 11.8241 45.3954 14.4971 45.9254 14.8889C47.861 16.3867 46.8471 16.3406 71.757 16.3406C84.2003 16.3636 95.4225 16.4558 96.7359 16.571C101.713 17.0088 105.861 17.9767 108.995 19.3593L110.631 20.0967L109.94 20.3962C108.742 20.9032 108.419 22.0784 109.248 23.1153C109.709 23.6914 109.801 23.7145 112.014 23.7145H114.295V25.6731V27.6318H111.53C109.917 27.6318 108.765 27.5397 108.765 27.4014C108.765 27.2862 108.142 26.5257 107.382 25.7192C104.34 22.4471 99.7546 21.318 95.7451 22.8158C93.8786 23.5071 91.8968 24.9358 90.7907 26.3644L89.8229 27.6318H87.8642C86.1129 27.6318 85.8825 27.6779 85.3756 28.2079C84.6612 28.8992 84.6151 29.9822 85.2603 30.6275C85.629 30.9962 86.0208 31.0883 87.1038 31.0883H88.4864V33.047V35.0057H60.627H32.7676L32.6754 32.7935C32.5833 30.6966 32.5372 30.5353 31.9381 30.0283C31.1546 29.337 30.6016 29.337 29.8181 30.0053C29.242 30.5122 29.1959 30.6275 29.242 32.517C29.2881 35.167 28.712 36.7339 27.099 38.37C25.4859 39.9831 23.8038 40.6052 21.4303 40.49C18.5268 40.3517 16.2456 38.8309 15.0243 36.2039C14.4943 35.0979 14.4021 34.5909 14.4251 33.047C14.4712 29.4983 16.4069 26.9405 19.8173 25.9266C21.3842 25.4658 22.1446 25.4658 23.8499 25.9266C24.6103 26.134 25.4859 26.2953 25.8085 26.2723C26.8916 26.2262 27.5368 24.7975 26.9607 23.7145C26.6381 23.1153 24.4951 22.3549 22.6286 22.1936C18.4116 21.8249 14.0334 24.2905 12.0978 28.1388C11.6599 29.0144 11.2451 30.0975 11.153 30.5353C11.0838 30.9731 10.9225 31.3188 10.8304 31.3188C10.3695 31.3188 4.88519 30.1435 4.35519 29.9131C3.38737 29.5214 3.22607 28.8301 3.22607 25.2123V21.871H4.58562C5.78388 21.871 6.01431 21.8019 6.42909 21.2719C7.0743 20.4653 7.02822 19.6819 6.33692 18.9906C5.87605 18.5067 5.55344 18.4145 4.49345 18.4145H3.22607V17.1241C3.22607 16.041 3.31824 15.7415 3.87128 15.2115C4.44736 14.6123 4.6778 14.5663 6.913 14.428C8.24951 14.3589 9.70124 14.1745 10.1391 14.0132C10.5769 13.875 16.1303 11.5476 22.4673 8.85151C36.0859 3.06763 34.5189 3.6898 35.3715 3.73589C35.9937 3.78197 36.6619 4.45023 40.5102 8.96672ZM101.391 25.9266C103.649 26.5949 105.377 28.0696 106.299 30.1435C107.036 31.7796 106.99 34.4987 106.184 36.2039C104.962 38.8309 102.681 40.3517 99.7776 40.49C96.4364 40.6513 93.5559 38.8309 92.4268 35.8122C91.7125 33.9457 91.8277 31.5031 92.6803 29.8209C94.3625 26.5257 97.9803 24.9127 101.391 25.9266ZM114.295 32.4709C114.295 33.6461 114.203 33.9687 113.719 34.4296C113.258 34.9135 112.935 35.0057 111.714 35.0057H110.262V33.047V31.0883H112.29H114.295V32.4709Z" fill="#9903F5"/>
<path d="M39.4963 20.5115C38.8511 20.8341 38.4133 21.7789 38.6207 22.401C38.805 22.9771 43.4137 29.1527 44.128 29.7749C44.3815 30.0053 45.0037 30.3971 45.5106 30.6275C46.3863 31.0653 47.1467 31.0884 63.0466 31.0884C78.5548 31.0884 79.7069 31.0653 80.1448 30.6736C80.4213 30.4662 80.6978 30.0053 80.79 29.6597C80.9052 29.1527 80.79 28.8993 80.2369 28.3232L79.5456 27.6319H67.7014H55.8801L53.6449 24.6593C51.9628 22.401 51.1332 21.5024 50.3036 21.0184C50.0493 20.8701 49.8534 20.7558 49.6465 20.6673C48.9538 20.3708 48.1377 20.3626 44.5889 20.3271C41.6624 20.2811 39.7959 20.3732 39.4963 20.5115ZM48.5523 24.0141C48.9902 24.2676 51.3867 27.1941 51.3867 27.5167C51.3867 27.5858 50.3958 27.6319 49.1515 27.6319H46.9393L46.1097 26.7562C45.6489 26.2723 44.9345 25.3736 44.5198 24.7975L43.7593 23.7145H45.9024C47.1467 23.7376 48.2528 23.8528 48.5523 24.0141Z" fill="#9903F5"/>
<path d="M39.4963 20.5115C38.8511 20.8341 38.4133 21.7789 38.6207 22.401C38.805 22.9771 43.4137 29.1527 44.128 29.7749C44.3815 30.0053 45.0037 30.3971 45.5106 30.6275C46.3863 31.0653 47.1467 31.0884 63.0466 31.0884C78.5548 31.0884 79.7069 31.0653 80.1448 30.6736C80.4213 30.4662 80.6978 30.0053 80.79 29.6597C80.9052 29.1527 80.79 28.8993 80.2369 28.3232L79.5456 27.6319H67.7014H55.8801L53.6449 24.6593C51.9628 22.401 51.1332 21.5024 50.3036 21.0184C50.0493 20.8701 49.8534 20.7558 49.6465 20.6673C48.9538 20.3708 48.1377 20.3626 44.5889 20.3271C41.6624 20.2811 39.7959 20.3732 39.4963 20.5115ZM48.5523 24.0141C48.9902 24.2676 51.3867 27.1941 51.3867 27.5167C51.3867 27.5858 50.3958 27.6319 49.1515 27.6319H46.9393L46.1097 26.7562C45.6489 26.2723 44.9345 25.3736 44.5198 24.7975L43.7593 23.7145H45.9024C47.1467 23.7376 48.2528 23.8528 48.5523 24.0141Z" stroke="black"/>
<path d="M20.2781 29.9822C18.3885 30.9501 17.6742 33.4157 18.8494 34.9826C19.9785 36.5265 21.7759 37.0105 23.412 36.25C25.1863 35.4205 25.9237 32.8857 24.8407 31.3418C23.6424 29.5905 22.0063 29.1066 20.2781 29.9822Z" fill="#9903F5"/>
<path d="M20.2781 29.9822C18.3885 30.9501 17.6742 33.4157 18.8494 34.9826C19.9785 36.5265 21.7759 37.0105 23.412 36.25C25.1863 35.4205 25.9237 32.8857 24.8407 31.3418C23.6424 29.5905 22.0063 29.1066 20.2781 29.9822Z" stroke="black"/>
<path d="M98.303 29.7057C96.7821 30.1665 95.7451 31.7565 95.9064 33.3926C96.2521 36.9874 100.999 37.84 102.566 34.5909C103.465 32.7704 102.727 30.7657 100.838 29.9131C99.8008 29.4522 99.3169 29.4061 98.303 29.7057Z" fill="#9903F5"/>
<path d="M98.303 29.7057C96.7821 30.1665 95.7451 31.7565 95.9064 33.3926C96.2521 36.9874 100.999 37.84 102.566 34.5909C103.465 32.7704 102.727 30.7657 100.838 29.9131C99.8008 29.4522 99.3169 29.4061 98.303 29.7057Z" stroke="black"/>
</svg>
