<svg width="147" height="20" viewBox="0 0 147 20" fill="none" xmlns="http://www.w3.org/2000/svg">
<path fill-rule="evenodd" clip-rule="evenodd" d="M72.045 0.897999V11.084L58.386 0.199999C58.198 0.0489987 57.963 -0.0200013 57.724 0.00599869C57.485 0.0329987 57.27 0.149999 57.119 0.338999C56.81 0.724999 56.873 1.289 57.259 1.598L72.382 13.65C72.542 13.777 72.742 13.847 72.946 13.847C73.081 13.847 73.213 13.817 73.335 13.759C73.645 13.611 73.846 13.294 73.846 12.951V0.897999C73.846 0.402999 73.442 0.000998692 72.946 0.000998692C72.449 0.000998692 72.046 0.402999 72.046 0.897999H72.045ZM58.387 6.35C58.119 6.136 57.744 6.093 57.435 6.242C57.124 6.39 56.923 6.707 56.923 7.05V19.104C56.923 19.598 57.327 20 57.823 20C58.32 20 58.723 19.598 58.723 19.104V8.916L72.383 19.803C72.543 19.93 72.743 20 72.946 20C73.221 20 73.477 19.878 73.65 19.663C73.96 19.277 73.896 18.713 73.51 18.405L58.387 6.35ZM144.353 0.897999V11.084L130.695 0.197999C130.506 0.0479987 130.272 -0.0200013 130.033 0.00499869C129.793 0.0319987 129.579 0.148999 129.427 0.337999C129.118 0.723999 129.181 1.288 129.567 1.597L144.69 13.649C144.85 13.776 145.05 13.846 145.254 13.846C145.388 13.846 145.522 13.816 145.642 13.758C145.953 13.61 146.154 13.293 146.154 12.95V0.897999C146.154 0.402999 145.75 0.000998692 145.254 0.000998692C144.757 0.000998692 144.353 0.402999 144.353 0.897999V0.897999ZM130.695 6.35C130.426 6.136 130.051 6.093 129.742 6.242C129.432 6.39 129.231 6.707 129.231 7.05V19.104C129.231 19.598 129.635 20 130.131 20C130.628 20 131.031 19.598 131.031 19.104V8.916L144.691 19.803C144.85 19.93 145.05 20 145.254 20C145.528 20 145.784 19.878 145.958 19.663C146.267 19.277 146.204 18.713 145.818 18.405L130.694 6.35H130.695ZM38.15 12.596L41.967 2.39L45.727 12.595H38.15V12.596ZM49.85 18.474L49.788 18.309L49.704 18.085L49.598 17.803L49.473 17.469L49.329 17.085L49.168 16.656L48.991 16.185L48.8 15.675L48.595 15.132L48.38 14.558L48.154 13.957L47.92 13.332L47.678 12.688L47.43 12.028L47.178 11.356L46.922 10.676C46.837 10.448 46.752 10.219 46.665 9.991L46.408 9.305L46.152 8.622L45.897 7.946L45.647 7.279L45.402 6.627L45.164 5.992L44.934 5.378L44.713 4.79L44.503 4.23L44.305 3.703L44.12 3.213L43.951 2.762L43.799 2.355L43.664 1.995C43.624 1.892 43.586 1.789 43.548 1.685L43.452 1.432L43.379 1.237L43.329 1.104L43.304 1.037L43.301 1.029C43.034 0.271999 42.708 -1.30778e-06 42.028 -1.30778e-06C41.317 -1.30778e-06 41.02 0.271999 40.724 1.03L33.916 18.773C33.9 18.806 33.884 18.846 33.868 18.885C33.855 18.947 33.846 19.01 33.846 19.075C33.846 19.586 34.251 20 34.751 20C34.767 20 34.781 19.998 34.796 19.997C35.255 19.936 35.456 19.697 35.632 19.257L37.527 14.23H46.32L48.185 19.257C48.215 19.343 48.248 19.417 48.286 19.482C48.391 19.699 48.575 19.866 48.8 19.947C48.817 19.953 48.832 19.96 48.85 19.965L48.886 19.973C48.922 19.981 48.961 19.988 49.001 19.993C49.032 19.996 49.063 20 49.095 20C49.595 20 50 19.586 50 19.075C50 18.868 49.922 18.665 49.85 18.474V18.474ZM26.856 18.308C26.84 18.308 26.826 18.312 26.81 18.313C26.787 18.312 26.766 18.308 26.742 18.308H17.98V10.4H25.28C25.38 10.4 25.466 10.388 25.547 10.37L25.575 10.363C25.61 10.354 25.644 10.344 25.675 10.332C25.707 10.32 25.737 10.305 25.767 10.289L25.787 10.279C26.035 10.139 26.205 9.873 26.205 9.565C26.205 9.143 25.889 8.8 25.484 8.755C25.467 8.752 25.448 8.751 25.43 8.749C25.418 8.749 25.407 8.745 25.395 8.745H25.388C25.352 8.743 25.318 8.739 25.28 8.739H17.98V1.692H26.437C26.462 1.692 26.483 1.689 26.507 1.688C26.523 1.688 26.537 1.692 26.554 1.692C27.016 1.692 27.391 1.314 27.391 0.845999C27.391 0.378999 27.016 -1.30778e-06 26.554 -1.30778e-06C26.538 -1.30778e-06 26.523 0.00399869 26.507 0.00499869C26.483 0.00399869 26.462 -1.30778e-06 26.437 -1.30778e-06H17.157C16.459 -1.30778e-06 16.154 0.307999 16.154 1.016V18.984C16.154 19.692 16.459 20 17.158 20H26.742C26.766 20 26.787 19.997 26.81 19.996C26.825 19.996 26.84 20 26.856 20C27.317 20 27.692 19.622 27.692 19.154C27.692 18.687 27.317 18.308 26.856 18.308V18.308ZM9.918 18.333H1.91V0.966999L1.908 0.942999L1.91 0.924999C1.91 0.884999 1.903 0.847999 1.898 0.808999C1.896 0.795999 1.896 0.781999 1.893 0.768999C1.886 0.728999 1.874 0.688999 1.862 0.648999C1.856 0.631999 1.852 0.613999 1.845 0.597999C1.708 0.248999 1.363 -1.30778e-06 0.955 -1.30778e-06C0.545 -1.30778e-06 0.2 0.249999 0.064 0.599999C0.058 0.614999 0.055 0.629999 0.05 0.643999C0.036 0.683999 0.024 0.725999 0.016 0.769999L0.012 0.807999C0.007 0.846999 0 0.884999 0 0.924999L0.002 0.942999L0 0.966999V18.999C0 19.697 0.313 20 1.034 20H9.787C9.891 20 9.982 19.988 10.066 19.97L10.128 19.956L10.173 19.942C10.517 19.836 10.769 19.528 10.769 19.159C10.769 18.703 10.388 18.333 9.918 18.333ZM83.143 4.807C83.143 2.937 84.701 1.632 87.258 1.632C88.668 1.632 89.756 2.017 90.871 2.7C91.168 2.884 91.446 3.102 91.679 3.192C91.772 3.232 91.874 3.257 91.982 3.257C92.396 3.257 92.732 2.917 92.732 2.499C92.732 1.923 92.153 1.519 91.725 1.245C90.431 0.414999 88.99 -1.30778e-06 87.287 -1.30778e-06C83.703 -1.30778e-06 81.322 1.928 81.322 4.925C81.322 10.949 91.225 9.703 91.225 14.718C91.225 16.943 89.256 18.368 86.67 18.368C85.112 18.368 83.908 17.863 82.79 17.062C82.406 16.796 82.188 16.617 82.012 16.515C81.884 16.423 81.727 16.368 81.558 16.368C81.122 16.368 80.769 16.724 80.769 17.164C80.769 17.396 80.869 17.604 81.026 17.749C81.176 17.962 81.415 18.189 81.733 18.427C83.026 19.407 84.672 20 86.641 20C90.256 20 93.077 18.012 93.077 14.598C93.077 8.218 83.143 9.406 83.143 4.807V4.807ZM104.83 11.797C104.133 11.797 103.35 11.737 102.538 11.587V1.801C103.321 1.681 104.074 1.621 104.683 1.621C107.931 1.621 110.424 3.062 110.424 6.694C110.424 10.025 108.307 11.797 104.829 11.797H104.83ZM104.71 -1.30778e-06C103.726 -1.30778e-06 102.48 0.119999 101.783 0.270999C100.768 0.480999 100.768 1.051 100.768 1.681V19.061L100.769 19.075V19.085C100.769 19.11 100.774 19.133 100.775 19.156C100.778 19.194 100.78 19.232 100.786 19.266C100.786 19.271 100.788 19.276 100.79 19.281C100.81 19.392 100.848 19.489 100.904 19.569C101.061 19.827 101.336 20 101.652 20C101.962 20 102.233 19.834 102.39 19.584C102.486 19.454 102.537 19.281 102.537 19.061V13.177C103.292 13.327 104.104 13.417 104.914 13.417C109.293 13.417 112.307 11.077 112.307 6.664C112.307 2.072 109.089 -1.30778e-06 104.71 -1.30778e-06V-1.30778e-06ZM121.538 0.903999C121.538 0.403999 121.194 -1.30778e-06 120.769 -1.30778e-06C120.344 -1.30778e-06 120 0.404999 120 0.903999L120.003 0.936999C120.003 0.951999 120 0.965999 120 0.981999V18.95C120 18.98 120.004 19.006 120.005 19.034C120.005 19.054 120 19.074 120 19.096C120 19.596 120.344 20 120.77 20C121.194 20 121.538 19.595 121.538 19.096C121.538 19.075 121.534 19.056 121.533 19.035C121.534 19.006 121.538 18.981 121.538 18.95V0.981999C121.538 0.965999 121.536 0.951999 121.535 0.936999L121.538 0.903999V0.903999Z" fill="white"/>
</svg>
